<?xml version="1.0" encoding="UTF-8"?>
<svg id="Layer_2" data-name="Layer 2" xmlns="http://www.w3.org/2000/svg" xmlns:xlink="http://www.w3.org/1999/xlink" viewBox="0 0 422.29 322.13">
  <defs>
    <style>
      .cls-1 {
        fill: none;
      }

      .cls-2 {
        fill: #11554c;
      }

      .cls-3 {
        fill: url(#linear-gradient);
      }

      .cls-4 {
        fill: #2dd4bf;
      }

      .cls-5 {
        clip-path: url(#clippath);
      }
    </style>
    <clipPath id="clippath">
      <path class="cls-1" d="M164.97,82.45L7.02,227.48c-6.36,5.84-8.65,14.89-5.84,23.05l19.62,56.95c4.68,13.59,21.05,18.96,32.87,10.77l133.3-92.3c14.54-10.07,33.81-10.07,48.35,0l133.3,92.3c11.82,8.18,28.19,2.82,32.87-10.77l19.62-56.95c2.81-8.16.52-17.21-5.84-23.05l-157.95-145.03c-26.11-23.97-66.23-23.97-92.34,0Z"/>
    </clipPath>
    <linearGradient id="linear-gradient" x1="211.14" y1="0" x2="211.14" y2="257.66" gradientUnits="userSpaceOnUse">
      <stop offset=".36" stop-color="#11554c"/>
      <stop offset="1" stop-color="#2dd4bf"/>
    </linearGradient>
  </defs>
  <g id="Layer_1-2" data-name="Layer 1">
    <g>
      <path class="cls-2" d="M164.97,82.45L7.02,227.48c-6.36,5.84-8.65,14.89-5.84,23.05l19.62,56.95c4.68,13.59,21.05,18.96,32.87,10.77l133.3-92.3c14.54-10.07,33.81-10.07,48.35,0l133.3,92.3c11.82,8.18,28.19,2.82,32.87-10.77l19.62-56.95c2.81-8.16.52-17.21-5.84-23.05l-157.95-145.03c-26.11-23.97-66.23-23.97-92.34,0Z"/>
      <path class="cls-4" d="M164.97,17.98L7.02,163.02c-6.36,5.84-8.65,14.89-5.84,23.05l19.62,56.95c4.68,13.59,21.05,18.96,32.87,10.77l133.3-92.3c14.54-10.07,33.81-10.07,48.35,0l133.3,92.3c11.82,8.18,28.19,2.82,32.87-10.77l19.62-56.95c2.81-8.16.52-17.21-5.84-23.05L257.31,17.98c-26.11-23.97-66.23-23.97-92.34,0Z"/>
      <g class="cls-5">
        <path class="cls-3" d="M164.97,17.98L7.02,163.02c-6.36,5.84-8.65,14.89-5.84,23.05l19.62,56.95c4.68,13.59,21.05,18.96,32.87,10.77l133.3-92.3c14.54-10.07,33.81-10.07,48.35,0l133.3,92.3c11.82,8.18,28.19,2.82,32.87-10.77l19.62-56.95c2.81-8.16.52-17.21-5.84-23.05L257.31,17.98c-26.11-23.97-66.23-23.97-92.34,0Z"/>
      </g>
    </g>
  </g>
</svg>